# xmcd
# Copyright (C) 1995-1998 Ti Kan
#
# Track frame offsets:
#       150
#       25873
#       42576
#       62996
#       86654
#
# Disc length: 1484 seconds
#
# Revision: 0
# Processed by: cddbd v1.5.2PL0 Copyright (c) Steve Scherf et al.
# Submitted via: CD-Import v1.0
#
DISCID=3f05ca05
DTITLE=Andrew - Ldw Uf Der Welt Gibts Ein Kleines Bisschen Glück
DYEAR=1900
DGENRE=
TTITLE0=Ldw 110516
TTITLE1=Ldw 110517
TTITLE2=Ldw 110518
TTITLE3=Ldw 110519
TTITLE4=Ldw 110520
EXTD=
EXTT0=
EXTT1=
EXTT2=
EXTT3=
EXTT4=
PLAYORDER=
